<svg width="36" height="37" viewBox="0 0 36 37" fill="none" xmlns="http://www.w3.org/2000/svg">
<path d="M9.99081 0.376465C4.51419 0.376465 0.0585938 4.91774 0.0585938 10.4997V26.6968C0.0585938 32.2788 4.51419 36.8201 9.99081 36.8201H25.8824C31.359 36.8201 35.8146 32.2788 35.8146 26.6968V10.4997C35.8146 4.91774 31.359 0.376465 25.8824 0.376465H9.99081ZM9.99081 4.42575H25.8824C29.1679 4.42575 31.8417 7.15092 31.8417 10.4997V26.6968C31.8417 30.0456 29.1679 32.7708 25.8824 32.7708H9.99081C6.70523 32.7708 4.03148 30.0456 4.03148 26.6968V10.4997C4.03148 7.15092 6.70523 4.42575 9.99081 4.42575ZM27.8688 6.4504C27.342 6.4504 26.8367 6.66371 26.4642 7.0434C26.0916 7.4231 25.8824 7.93807 25.8824 8.47504C25.8824 9.01201 26.0916 9.52699 26.4642 9.90668C26.8367 10.2864 27.342 10.4997 27.8688 10.4997C28.3956 10.4997 28.9009 10.2864 29.2734 9.90668C29.646 9.52699 29.8553 9.01201 29.8553 8.47504C29.8553 7.93807 29.646 7.4231 29.2734 7.0434C28.9009 6.66371 28.3956 6.4504 27.8688 6.4504ZM17.9366 8.47504C12.46 8.47504 8.00437 13.0163 8.00437 18.5983C8.00437 24.1802 12.46 28.7215 17.9366 28.7215C23.4132 28.7215 27.8688 24.1802 27.8688 18.5983C27.8688 13.0163 23.4132 8.47504 17.9366 8.47504ZM17.9366 12.5243C21.2222 12.5243 23.8959 15.2495 23.8959 18.5983C23.8959 21.947 21.2222 24.6722 17.9366 24.6722C14.651 24.6722 11.9773 21.947 11.9773 18.5983C11.9773 15.2495 14.651 12.5243 17.9366 12.5243Z" fill="#1644BB"/>
</svg>
