<svg width="36" height="37" viewBox="0 0 36 37" fill="none" xmlns="http://www.w3.org/2000/svg">
<path d="M8.24705 36.7596H0.959523V12.5089H8.24705V36.7596ZM4.59937 9.20084C2.26905 9.20084 0.378906 7.2063 0.378906 4.79825C0.378906 3.64158 0.823561 2.53228 1.61505 1.71439C2.40654 0.896498 3.48003 0.437012 4.59937 0.437012C5.7187 0.437012 6.79219 0.896498 7.58368 1.71439C8.37517 2.53228 8.81983 3.64158 8.81983 4.79825C8.81983 7.2063 6.9289 9.20084 4.59937 9.20084ZM35.5219 36.7596H28.2501V24.9545C28.2501 22.1411 28.1952 18.533 24.4612 18.533C20.6723 18.533 20.0916 21.5897 20.0916 24.7518V36.7596H12.812V12.5089H19.8013V15.8169H19.9033C20.8763 13.9115 23.2529 11.9008 26.7986 11.9008C34.174 11.9008 35.5298 16.9196 35.5298 23.4383V36.7596H35.5219Z" fill="#1644BB"/>
</svg>
