<svg width="42" height="35" viewBox="0 0 42 35" fill="none" xmlns="http://www.w3.org/2000/svg">
<path d="M41.3545 4.7399C39.836 5.41763 38.2049 5.87369 36.4928 6.0794C38.2414 5.02694 39.5822 3.36054 40.2137 1.37362C38.5793 2.34794 36.7673 3.05596 34.8378 3.43868C33.2939 1.78504 31.0947 0.751709 28.6606 0.751709C23.9861 0.751709 20.1969 4.5613 20.1969 9.25752C20.1969 9.92408 20.2731 10.5747 20.4159 11.195C13.3819 10.841 7.14597 7.45398 2.96966 2.30648C2.24293 3.56306 1.82562 5.02375 1.82562 6.5849C1.82562 9.53499 3.31874 12.139 5.58937 13.6635C4.20256 13.6189 2.89667 13.2361 1.7558 12.5999C1.7558 12.6366 1.7558 12.67 1.7558 12.7067C1.7558 16.8289 4.67223 20.2669 8.54547 21.0467C7.8362 21.2412 7.08726 21.3449 6.31451 21.3449C5.77026 21.3449 5.2387 21.2907 4.72301 21.1934C5.80041 24.5724 8.92629 27.033 12.6297 27.1015C9.73394 29.3835 6.08444 30.7437 2.11758 30.7437C1.43528 30.7437 0.760915 30.7038 0.0976562 30.6241C3.84396 33.0368 8.29159 34.4449 13.0724 34.4449C28.6416 34.4449 37.1528 21.4836 37.1528 10.243C37.1528 9.87464 37.1449 9.50788 37.129 9.1427C38.784 7.94194 40.22 6.44457 41.3545 4.7399Z" fill="#C76050"/>
</svg>
